<?xml version="1.0" encoding="UTF-8" standalone="no"?>
<!DOCTYPE svg PUBLIC "-//W3C//DTD SVG 1.1//EN"
 "http://www.w3.org/Graphics/SVG/1.1/DTD/svg11.dtd">
<!-- Generated by graphviz version 2.43.0 (0)
 -->
<!-- Title: memory Pages: 1 -->
<svg width="1496pt" height="239pt"
 viewBox="0.00 0.00 1496.00 239.00" xmlns="http://www.w3.org/2000/svg" xmlns:xlink="http://www.w3.org/1999/xlink">
<g id="graph0" class="graph" transform="scale(1 1) rotate(0) translate(4 235)">
<title>memory</title>
<polygon fill="white" stroke="transparent" points="-4,4 -4,-235 1492,-235 1492,4 -4,4"/>
<g id="clust1" class="cluster">
<title>cluster_Heap</title>
<polygon fill="none" stroke="black" points="306,-8 306,-223 1480,-223 1480,-8 306,-8"/>
<text text-anchor="middle" x="893" y="-207.8" font-family="Times,serif" font-size="14.00">Heap</text>
</g>
<!-- roots -->
<g id="node1" class="node">
<title>roots</title>
<text text-anchor="start" x="116" y="-132.8" font-family="Times,serif" font-weight="bold" font-size="14.00">Roots</text>
<text text-anchor="start" x="8.5" y="-110.8" font-family="Times,serif" font-size="14.00">original</text>
<text text-anchor="start" x="73" y="-110.8" font-family="Times,serif" font-size="14.00">ImmutableStack&lt;string&gt;</text>
<text text-anchor="start" x="263" y="-110.8" font-family="Times,serif" font-size="14.00">  </text>
<text text-anchor="start" x="5" y="-89.8" font-family="Times,serif" font-size="14.00">modified</text>
<text text-anchor="start" x="73" y="-89.8" font-family="Times,serif" font-size="14.00">ImmutableStack&lt;string&gt;</text>
<text text-anchor="start" x="263" y="-89.8" font-family="Times,serif" font-size="14.00">  </text>
<polygon fill="black" stroke="black" points="0,-125 0,-125 278,-125 278,-125 0,-125"/>
<polygon fill="black" stroke="black" points="70,-104 70,-125 70,-125 70,-104 70,-104"/>
<polygon fill="black" stroke="black" points="0,-104 0,-104 70,-104 70,-104 0,-104"/>
<polygon fill="black" stroke="black" points="260,-104 260,-125 260,-125 260,-104 260,-104"/>
<polygon fill="black" stroke="black" points="70,-104 70,-104 260,-104 260,-104 70,-104"/>
<polygon fill="black" stroke="black" points="260,-104 260,-104 278,-104 278,-104 260,-104"/>
<polygon fill="black" stroke="black" points="70,-81 70,-104 70,-104 70,-81 70,-81"/>
<polygon fill="black" stroke="black" points="260,-81 260,-104 260,-104 260,-81 260,-81"/>
<polygon fill="none" stroke="black" points="0,-81.5 0,-148.5 278,-148.5 278,-81.5 0,-81.5"/>
</g>
<!-- 1 -->
<g id="node2" class="node">
<title>1</title>
<text text-anchor="start" x="341.5" y="-163.8" font-family="Times,serif" font-weight="bold" font-size="14.00">ImmutableStack&lt;string&gt;</text>
<text text-anchor="start" x="319" y="-141.8" font-family="Times,serif" font-size="14.00">_head</text>
<text text-anchor="start" x="437.5" y="-141.8" font-family="Times,serif" font-size="14.00">string</text>
<text text-anchor="start" x="557" y="-141.8" font-family="Times,serif" font-size="14.00">  </text>
<text text-anchor="start" x="324.5" y="-120.8" font-family="Times,serif" font-size="14.00">_tail</text>
<text text-anchor="start" x="367" y="-120.8" font-family="Times,serif" font-size="14.00">ImmutableStack&lt;string&gt;</text>
<text text-anchor="start" x="557" y="-120.8" font-family="Times,serif" font-size="14.00">  </text>
<polygon fill="black" stroke="black" points="314,-156 314,-156 572,-156 572,-156 314,-156"/>
<polygon fill="black" stroke="black" points="364,-135 364,-156 364,-156 364,-135 364,-135"/>
<polygon fill="black" stroke="black" points="314,-135 314,-135 364,-135 364,-135 314,-135"/>
<polygon fill="black" stroke="black" points="554,-135 554,-156 554,-156 554,-135 554,-135"/>
<polygon fill="black" stroke="black" points="364,-135 364,-135 554,-135 554,-135 364,-135"/>
<polygon fill="black" stroke="black" points="554,-135 554,-135 572,-135 572,-135 554,-135"/>
<polygon fill="black" stroke="black" points="364,-112 364,-135 364,-135 364,-112 364,-112"/>
<polygon fill="black" stroke="black" points="554,-112 554,-135 554,-135 554,-112 554,-112"/>
<polygon fill="none" stroke="black" points="314,-112.5 314,-179.5 572,-179.5 572,-112.5 314,-112.5"/>
</g>
<!-- roots&#45;&gt;1 -->
<g id="edge1" class="edge">
<title>roots:c&#45;&gt;1</title>
<path fill="none" stroke="black" d="M276.98,-115.48C283.09,-116.61 292.34,-118.32 303.4,-120.36"/>
<ellipse fill="black" stroke="black" cx="272.93" cy="-114.73" rx="4" ry="4"/>
<polygon fill="black" stroke="black" points="303.08,-123.86 313.55,-122.24 304.36,-116.98 303.08,-123.86"/>
</g>
<!-- 8 -->
<g id="node9" class="node">
<title>8</title>
<text text-anchor="start" x="341.5" y="-78.8" font-family="Times,serif" font-weight="bold" font-size="14.00">ImmutableStack&lt;string&gt;</text>
<text text-anchor="start" x="319" y="-56.8" font-family="Times,serif" font-size="14.00">_head</text>
<text text-anchor="start" x="437.5" y="-56.8" font-family="Times,serif" font-size="14.00">string</text>
<text text-anchor="start" x="557" y="-56.8" font-family="Times,serif" font-size="14.00">  </text>
<text text-anchor="start" x="324.5" y="-35.8" font-family="Times,serif" font-size="14.00">_tail</text>
<text text-anchor="start" x="367" y="-35.8" font-family="Times,serif" font-size="14.00">ImmutableStack&lt;string&gt;</text>
<text text-anchor="start" x="557" y="-35.8" font-family="Times,serif" font-size="14.00">  </text>
<polygon fill="black" stroke="black" points="314,-71 314,-71 572,-71 572,-71 314,-71"/>
<polygon fill="black" stroke="black" points="364,-50 364,-71 364,-71 364,-50 364,-50"/>
<polygon fill="black" stroke="black" points="314,-50 314,-50 364,-50 364,-50 314,-50"/>
<polygon fill="black" stroke="black" points="554,-50 554,-71 554,-71 554,-50 554,-50"/>
<polygon fill="black" stroke="black" points="364,-50 364,-50 554,-50 554,-50 364,-50"/>
<polygon fill="black" stroke="black" points="554,-50 554,-50 572,-50 572,-50 554,-50"/>
<polygon fill="black" stroke="black" points="364,-27 364,-50 364,-50 364,-27 364,-27"/>
<polygon fill="black" stroke="black" points="554,-27 554,-50 554,-50 554,-27 554,-27"/>
<polygon fill="none" stroke="black" points="314,-27.5 314,-94.5 572,-94.5 572,-27.5 314,-27.5"/>
</g>
<!-- roots&#45;&gt;8 -->
<g id="edge2" class="edge">
<title>roots:c&#45;&gt;8</title>
<path fill="none" stroke="black" d="M276.98,-91.52C283.09,-90.39 292.34,-88.68 303.4,-86.64"/>
<ellipse fill="black" stroke="black" cx="272.93" cy="-92.27" rx="4" ry="4"/>
<polygon fill="black" stroke="black" points="304.36,-90.02 313.55,-84.76 303.08,-83.14 304.36,-90.02"/>
</g>
<!-- 2 -->
<g id="node3" class="node">
<title>2</title>
<path fill="none" stroke="black" d="M752,-192C752,-192 722,-192 722,-192 716,-192 710,-186 710,-180 710,-180 710,-168 710,-168 710,-162 716,-156 722,-156 722,-156 752,-156 752,-156 758,-156 764,-162 764,-168 764,-168 764,-180 764,-180 764,-186 758,-192 752,-192"/>
<text text-anchor="middle" x="737" y="-170.3" font-family="Times,serif" font-size="14.00">&quot;C&quot;</text>
</g>
<!-- 1&#45;&gt;2 -->
<g id="edge3" class="edge">
<title>1:c&#45;&gt;2</title>
<path fill="none" stroke="black" d="M570.96,-146.33C593.42,-150.1 658.34,-160.98 699.74,-167.92"/>
<ellipse fill="black" stroke="black" cx="566.94" cy="-145.66" rx="4" ry="4"/>
<polygon fill="black" stroke="black" points="699.28,-171.39 709.73,-169.6 700.44,-164.49 699.28,-171.39"/>
</g>
<!-- 3 -->
<g id="node4" class="node">
<title>3</title>
<text text-anchor="start" x="635.5" y="-121.8" font-family="Times,serif" font-weight="bold" font-size="14.00">ImmutableStack&lt;string&gt;</text>
<text text-anchor="start" x="613" y="-99.8" font-family="Times,serif" font-size="14.00">_head</text>
<text text-anchor="start" x="731.5" y="-99.8" font-family="Times,serif" font-size="14.00">string</text>
<text text-anchor="start" x="851" y="-99.8" font-family="Times,serif" font-size="14.00">  </text>
<text text-anchor="start" x="618.5" y="-78.8" font-family="Times,serif" font-size="14.00">_tail</text>
<text text-anchor="start" x="661" y="-78.8" font-family="Times,serif" font-size="14.00">ImmutableStack&lt;string&gt;</text>
<text text-anchor="start" x="851" y="-78.8" font-family="Times,serif" font-size="14.00">  </text>
<polygon fill="black" stroke="black" points="608,-114 608,-114 866,-114 866,-114 608,-114"/>
<polygon fill="black" stroke="black" points="658,-93 658,-114 658,-114 658,-93 658,-93"/>
<polygon fill="black" stroke="black" points="608,-93 608,-93 658,-93 658,-93 608,-93"/>
<polygon fill="black" stroke="black" points="848,-93 848,-114 848,-114 848,-93 848,-93"/>
<polygon fill="black" stroke="black" points="658,-93 658,-93 848,-93 848,-93 658,-93"/>
<polygon fill="black" stroke="black" points="848,-93 848,-93 866,-93 866,-93 848,-93"/>
<polygon fill="black" stroke="black" points="658,-70 658,-93 658,-93 658,-70 658,-70"/>
<polygon fill="black" stroke="black" points="848,-70 848,-93 848,-93 848,-70 848,-70"/>
<polygon fill="none" stroke="black" points="608,-70.5 608,-137.5 866,-137.5 866,-70.5 608,-70.5"/>
</g>
<!-- 1&#45;&gt;3 -->
<g id="edge4" class="edge">
<title>1:c&#45;&gt;3</title>
<path fill="none" stroke="black" d="M570.98,-123.08C577.09,-122.37 586.34,-121.3 597.4,-120.02"/>
<ellipse fill="black" stroke="black" cx="566.97" cy="-123.54" rx="4" ry="4"/>
<polygon fill="black" stroke="black" points="598.02,-123.47 607.55,-118.85 597.22,-116.52 598.02,-123.47"/>
</g>
<!-- 4 -->
<g id="node5" class="node">
<title>4</title>
<path fill="none" stroke="black" d="M1046,-167C1046,-167 1016,-167 1016,-167 1010,-167 1004,-161 1004,-155 1004,-155 1004,-143 1004,-143 1004,-137 1010,-131 1016,-131 1016,-131 1046,-131 1046,-131 1052,-131 1058,-137 1058,-143 1058,-143 1058,-155 1058,-155 1058,-161 1052,-167 1046,-167"/>
<text text-anchor="middle" x="1031" y="-145.3" font-family="Times,serif" font-size="14.00">&quot;B&quot;</text>
</g>
<!-- 3&#45;&gt;4 -->
<g id="edge5" class="edge">
<title>3:c&#45;&gt;4</title>
<path fill="none" stroke="black" d="M864.48,-106.68C873.27,-110.89 888.41,-117.74 902,-122 932.29,-131.49 967.65,-138.67 993.52,-143.23"/>
<ellipse fill="black" stroke="black" cx="860.59" cy="-104.77" rx="4" ry="4"/>
<polygon fill="black" stroke="black" points="993.19,-146.72 1003.64,-144.96 994.37,-139.82 993.19,-146.72"/>
</g>
<!-- 5 -->
<g id="node6" class="node">
<title>5</title>
<text text-anchor="start" x="929.5" y="-96.8" font-family="Times,serif" font-weight="bold" font-size="14.00">ImmutableStack&lt;string&gt;</text>
<text text-anchor="start" x="907" y="-74.8" font-family="Times,serif" font-size="14.00">_head</text>
<text text-anchor="start" x="1025.5" y="-74.8" font-family="Times,serif" font-size="14.00">string</text>
<text text-anchor="start" x="1145" y="-74.8" font-family="Times,serif" font-size="14.00">  </text>
<text text-anchor="start" x="912.5" y="-53.8" font-family="Times,serif" font-size="14.00">_tail</text>
<text text-anchor="start" x="955" y="-53.8" font-family="Times,serif" font-size="14.00">ImmutableStack&lt;string&gt;</text>
<text text-anchor="start" x="1145" y="-53.8" font-family="Times,serif" font-size="14.00">  </text>
<polygon fill="black" stroke="black" points="902,-89 902,-89 1160,-89 1160,-89 902,-89"/>
<polygon fill="black" stroke="black" points="952,-68 952,-89 952,-89 952,-68 952,-68"/>
<polygon fill="black" stroke="black" points="902,-68 902,-68 952,-68 952,-68 902,-68"/>
<polygon fill="black" stroke="black" points="1142,-68 1142,-89 1142,-89 1142,-68 1142,-68"/>
<polygon fill="black" stroke="black" points="952,-68 952,-68 1142,-68 1142,-68 952,-68"/>
<polygon fill="black" stroke="black" points="1142,-68 1142,-68 1160,-68 1160,-68 1142,-68"/>
<polygon fill="black" stroke="black" points="952,-45 952,-68 952,-68 952,-45 952,-45"/>
<polygon fill="black" stroke="black" points="1142,-45 1142,-68 1142,-68 1142,-45 1142,-45"/>
<polygon fill="none" stroke="black" points="902,-45.5 902,-112.5 1160,-112.5 1160,-45.5 902,-45.5"/>
</g>
<!-- 3&#45;&gt;5 -->
<g id="edge6" class="edge">
<title>3:c&#45;&gt;5</title>
<path fill="none" stroke="black" d="M865.28,-81.86C871.42,-81.75 880.59,-81.59 891.52,-81.4"/>
<ellipse fill="black" stroke="black" cx="861" cy="-81.93" rx="4" ry="4"/>
<polygon fill="black" stroke="black" points="891.61,-84.9 901.55,-81.23 891.49,-77.9 891.61,-84.9"/>
</g>
<!-- 6 -->
<g id="node7" class="node">
<title>6</title>
<path fill="none" stroke="black" d="M1349,-143C1349,-143 1319,-143 1319,-143 1313,-143 1307,-137 1307,-131 1307,-131 1307,-119 1307,-119 1307,-113 1313,-107 1319,-107 1319,-107 1349,-107 1349,-107 1355,-107 1361,-113 1361,-119 1361,-119 1361,-131 1361,-131 1361,-137 1355,-143 1349,-143"/>
<text text-anchor="middle" x="1334" y="-121.3" font-family="Times,serif" font-size="14.00">&quot;A&quot;</text>
</g>
<!-- 5&#45;&gt;6 -->
<g id="edge7" class="edge">
<title>5:c&#45;&gt;6</title>
<path fill="none" stroke="black" d="M1158.13,-81.77C1166.85,-86.23 1182.14,-93.62 1196,-98 1229.41,-108.57 1268.76,-115.81 1296.7,-120.11"/>
<ellipse fill="black" stroke="black" cx="1154.54" cy="-79.87" rx="4" ry="4"/>
<polygon fill="black" stroke="black" points="1296.41,-123.61 1306.81,-121.62 1297.44,-116.68 1296.41,-123.61"/>
</g>
<!-- 7 -->
<g id="node8" class="node">
<title>7</title>
<text text-anchor="start" x="1232.5" y="-72.8" font-family="Times,serif" font-weight="bold" font-size="14.00">ImmutableStack&lt;string&gt;</text>
<text text-anchor="start" x="1201" y="-50.8" font-family="Times,serif" font-size="14.00">_head</text>
<text text-anchor="start" x="1319.5" y="-50.8" font-family="Times,serif" font-size="14.00">string</text>
<text text-anchor="start" x="1439" y="-51.8" font-family="Times,serif" font-style="italic" font-size="14.00">null</text>
<text text-anchor="start" x="1206.5" y="-29.8" font-family="Times,serif" font-size="14.00">_tail</text>
<text text-anchor="start" x="1249" y="-29.8" font-family="Times,serif" font-size="14.00">ImmutableStack&lt;string&gt;</text>
<text text-anchor="start" x="1439" y="-30.8" font-family="Times,serif" font-style="italic" font-size="14.00">null</text>
<polygon fill="black" stroke="black" points="1196,-65 1196,-65 1472,-65 1472,-65 1196,-65"/>
<polygon fill="black" stroke="black" points="1246,-44 1246,-65 1246,-65 1246,-44 1246,-44"/>
<polygon fill="black" stroke="black" points="1196,-44 1196,-44 1246,-44 1246,-44 1196,-44"/>
<polygon fill="black" stroke="black" points="1436,-44 1436,-65 1436,-65 1436,-44 1436,-44"/>
<polygon fill="black" stroke="black" points="1246,-44 1246,-44 1436,-44 1436,-44 1246,-44"/>
<polygon fill="black" stroke="black" points="1436,-44 1436,-44 1472,-44 1472,-44 1436,-44"/>
<polygon fill="black" stroke="black" points="1246,-21 1246,-44 1246,-44 1246,-21 1246,-21"/>
<polygon fill="black" stroke="black" points="1436,-21 1436,-44 1436,-44 1436,-21 1436,-21"/>
<polygon fill="none" stroke="black" points="1196,-21.5 1196,-88.5 1472,-88.5 1472,-21.5 1196,-21.5"/>
</g>
<!-- 5&#45;&gt;7 -->
<g id="edge8" class="edge">
<title>5:c&#45;&gt;7</title>
<path fill="none" stroke="black" d="M1159.02,-56.91C1165.17,-56.84 1174.5,-56.74 1185.7,-56.62"/>
<ellipse fill="black" stroke="black" cx="1155" cy="-56.96" rx="4" ry="4"/>
<polygon fill="black" stroke="black" points="1186.03,-60.12 1195.99,-56.51 1185.95,-53.12 1186.03,-60.12"/>
</g>
<!-- 8&#45;&gt;3 -->
<g id="edge10" class="edge">
<title>8:c&#45;&gt;3</title>
<path fill="none" stroke="black" d="M570.19,-42.88C578.97,-47.53 594.32,-55.39 608,-61 612.76,-62.95 617.64,-64.89 622.59,-66.79"/>
<ellipse fill="black" stroke="black" cx="566.52" cy="-40.9" rx="4" ry="4"/>
<polygon fill="black" stroke="black" points="621.59,-70.15 632.18,-70.41 624.06,-63.6 621.59,-70.15"/>
</g>
<!-- 9 -->
<g id="node10" class="node">
<title>9</title>
<path fill="none" stroke="black" d="M752,-52C752,-52 722,-52 722,-52 716,-52 710,-46 710,-40 710,-40 710,-28 710,-28 710,-22 716,-16 722,-16 722,-16 752,-16 752,-16 758,-16 764,-22 764,-28 764,-28 764,-40 764,-40 764,-46 758,-52 752,-52"/>
<text text-anchor="middle" x="737" y="-30.3" font-family="Times,serif" font-size="14.00">&quot;D&quot;</text>
</g>
<!-- 8&#45;&gt;9 -->
<g id="edge9" class="edge">
<title>8:c&#45;&gt;9</title>
<path fill="none" stroke="black" d="M570.96,-58.8C593.42,-55.43 658.34,-45.67 699.74,-39.45"/>
<ellipse fill="black" stroke="black" cx="566.96" cy="-59.41" rx="4" ry="4"/>
<polygon fill="black" stroke="black" points="700.36,-42.9 709.73,-37.95 699.32,-35.97 700.36,-42.9"/>
</g>
</g>
</svg>
